HIERARCHY
ROOT Hips
{
	OFFSET 0.000000 0.000000 0.000000
	CHANNELS 6 Xposition Yposition Zposition Zrotation Yrotation Xrotation 
	JOINT LHipJoint
	{
		OFFSET 0.000000 0.000000 0.000000
		CHANNELS 3 Zrotation Yrotation Xrotation
		JOINT LeftUpLeg
		{
			OFFSET 1.363060 -1.794630 0.839290
			CHANNELS 3 Zrotation Yrotation Xrotation
			JOINT LeftLeg
			{
				OFFSET 2.448110 -6.726130 0.000000
				CHANNELS 3 Zrotation Yrotation Xrotation
				JOINT LeftFoot
				{
					OFFSET 2.562200 -7.039590 0.000000
					CHANNELS 3 Zrotation Yrotation Xrotation
					JOINT LeftToeBase
					{
						OFFSET 0.157640 -0.433110 2.322550
						CHANNELS 3 Zrotation Yrotation Xrotation
						End Site
						{
							OFFSET 0.000000 0.000000 0.000000
						}
					}
				}
			}
		}
	}
	JOINT RHipJoint
	{
		OFFSET 0.000000 0.000000 0.000000
		CHANNELS 3 Zrotation Yrotation Xrotation
		JOINT RightUpLeg
		{
			OFFSET -1.305520 -1.794630 0.839290
			CHANNELS 3 Zrotation Yrotation Xrotation
			JOINT RightLeg
			{
				OFFSET -2.542530 -6.985550 0.000000
				CHANNELS 3 Zrotation Yrotation Xrotation
				JOINT RightFoot
				{
					OFFSET -2.568260 -7.056230 0.000000
					CHANNELS 3 Zrotation Yrotation Xrotation
					JOINT RightToeBase
					{
						OFFSET -0.164730 -0.452590 2.363150
						CHANNELS 3 Zrotation Yrotation Xrotation
						End Site
						{
							OFFSET 0.000000 0.000000 0.000000
						}
					}
				}
			}
		}
	}
	JOINT LowerBack
	{
		OFFSET 0.000000 0.000000 0.000000
		CHANNELS 3 Zrotation Yrotation Xrotation
		JOINT Spine
		{
			OFFSET 0.028270 2.035590 -0.193380
			CHANNELS 3 Zrotation Yrotation Xrotation
			JOINT Spine1
			{
				OFFSET 0.056720 2.048850 -0.042750
				CHANNELS 3 Zrotation Yrotation Xrotation
				JOINT Neck
				{
					OFFSET 0.000000 0.000000 0.000000
					CHANNELS 3 Zrotation Yrotation Xrotation
					JOINT Neck1
					{
						OFFSET -0.054170 1.746240 0.172020
						CHANNELS 3 Zrotation Yrotation Xrotation
						JOINT Head
						{
							OFFSET 0.104070 1.761360 -0.123970
							CHANNELS 3 Zrotation Yrotation Xrotation
							End Site
							{
								OFFSET 0.000000 0.000000 0.000000
							}
						}
					}
				}
				JOINT LeftShoulder
				{
					OFFSET 0.000000 0.000000 0.000000
					CHANNELS 3 Zrotation Yrotation Xrotation
					JOINT LeftArm
					{
						OFFSET 3.362410 1.200890 -0.311210
						CHANNELS 3 Zrotation Yrotation Xrotation
						JOINT LeftForeArm
						{
							OFFSET 4.983000 -0.000000 -0.000000
							CHANNELS 3 Zrotation Yrotation Xrotation
							JOINT LeftHand
							{
								OFFSET 3.483560 -0.000000 -0.000000
								CHANNELS 3 Zrotation Yrotation Xrotation
								JOINT LeftFingerBase
								{
									OFFSET 0.000000 0.000000 0.000000
									CHANNELS 3 Zrotation Yrotation Xrotation
									JOINT LeftHandIndex1
									{
										OFFSET 0.715260 -0.000000 -0.000000
										CHANNELS 3 Zrotation Yrotation Xrotation
										End Site
										{
											OFFSET 0.000000 0.000000 0.000000
										}
									}
								}
								JOINT LThumb
								{
									OFFSET 0.000000 0.000000 0.000000
									CHANNELS 3 Zrotation Yrotation Xrotation
									End Site
									{
										OFFSET 0.000000 0.000000 0.000000
									}
								}
							}
						}
					}
				}
				JOINT RightShoulder
				{
					OFFSET 0.000000 0.000000 0.000000
					CHANNELS 3 Zrotation Yrotation Xrotation
					JOINT RightArm
					{
						OFFSET -3.136600 1.374050 -0.404650
						CHANNELS 3 Zrotation Yrotation Xrotation
						JOINT RightForeArm
						{
							OFFSET -5.241900 -0.000000 -0.000000
							CHANNELS 3 Zrotation Yrotation Xrotation
							JOINT RightHand
							{
								OFFSET -3.444170 -0.000000 -0.000000
								CHANNELS 3 Zrotation Yrotation Xrotation
								JOINT RightFingerBase
								{
									OFFSET 0.000000 0.000000 0.000000
									CHANNELS 3 Zrotation Yrotation Xrotation
									JOINT RightHandIndex1
									{
										OFFSET -0.622530 -0.000000 -0.000000
										CHANNELS 3 Zrotation Yrotation Xrotation
										End Site
										{
											OFFSET 0.000000 0.000000 0.000000
										}
									}
								}
								JOINT RThumb
								{
									OFFSET 0.000000 0.000000 0.000000
									CHANNELS 3 Zrotation Yrotation Xrotation
									End Site
									{
										OFFSET 0.000000 0.000000 0.000000
									}
								}
							}
						}
					}
				}
			}
		}
	}
}
MOTION
Frames: 7
Frame Time: 0.008333
29.752250 17.721130 4.835512 -74.428727 -87.781760 84.113247 -2.309077 -0.881620 0.183866 -14.490921 -5.963374 2.889824 0.754088 8.880280 23.864833 0.769780 -1.094793 6.451877 3.174000 -10.971500 -32.184000 1.473297 2.000584 -2.513211 15.137899 9.238914 -27.530967 -0.445788 -7.539055 18.835258 2.395991 -16.269491 9.357390 -1.154900 -6.823200 19.192600 1.459936 -2.325433 2.419175 2.667339 -2.975910 -4.938618 10.318541 -1.625460 -0.887024 -5.234107 -3.474452 -13.050391 4.751314 -4.010879 4.170477 1.990800 -1.976200 5.572300 6.944485 3.134120 0.336808 -95.979890 -3.824860 42.251309 16.787033 -36.624834 -4.530175 1.232721 2.377272 20.983527 15.639296 18.211730 4.193800 -7.125000 0.000000 0.000000 -11.495300 45.674800 -0.194000 -2.760556 -3.636288 -1.603147 85.953333 7.477316 -4.087757 -4.808204 11.902569 -0.303450 -0.149948 0.756405 31.289821 -17.650795 -24.549025 7.484600 7.125000 0.000000 0.000000 13.504400 -55.707400 -3.595500 
29.600635 17.749583 4.804747 -73.598042 -87.517230 83.267716 -2.242895 -0.906344 0.154108 -13.933514 -5.773395 2.192044 0.984981 9.358558 25.355765 0.856383 -1.346668 8.025136 2.855000 -10.456500 -30.467900 1.520678 1.976124 -2.444654 15.645293 9.116484 -26.968577 -0.420540 -7.490386 18.720785 2.368380 -15.996026 9.006691 -1.170100 -6.866400 19.320200 2.363966 -2.425155 2.606931 2.474603 -3.052811 -5.080330 9.096142 -1.676438 -1.474501 -4.536306 -3.350237 -12.566594 4.790884 -4.012120 4.287096 1.908700 -1.953900 5.525900 6.888029 3.054243 0.319805 -95.040512 -2.684442 41.549928 15.868801 -35.484627 -4.197390 1.245140 2.270896 21.780417 15.298123 17.874288 4.030300 -7.125000 0.000000 0.000000 -11.754800 45.390800 -0.115000 -2.784958 -3.619194 -1.598730 86.764405 6.573073 -7.505756 -4.535775 11.375949 -0.244586 -0.113335 0.760088 34.303408 -17.912987 -24.241692 7.517900 7.125000 0.000000 0.000000 13.081000 -55.452000 -3.398300 
29.448315 17.777433 4.767346 -71.435568 -87.334379 81.091140 -2.224744 -0.948210 0.111081 -13.381942 -5.554421 1.416832 1.228169 9.834865 26.843887 0.938469 -1.480347 9.732029 2.755500 -10.288300 -29.915400 1.522080 1.938891 -2.396646 16.080880 9.247268 -26.233346 -0.390314 -7.418006 18.528227 2.429997 -16.068066 8.474348 -1.166500 -6.856100 19.289800 2.453498 -2.447394 2.526113 2.535237 -3.090931 -5.097519 9.250508 -1.701291 -1.466768 -4.566779 -3.333368 -12.669236 4.712051 -3.985373 4.443872 1.878900 -1.946500 5.601200 6.942528 3.015924 0.335486 -95.118035 -1.873404 40.984590 15.138261 -34.772298 -3.949398 1.219903 2.308766 22.794747 14.172299 18.331046 3.842500 -7.125000 0.000000 0.000000 -12.828200 45.695700 -0.224000 -2.773510 -3.600560 -1.610330 86.432669 6.101107 -10.022457 -4.365232 11.033766 -0.197778 -0.091420 0.768293 36.222620 -18.106868 -24.608676 7.708600 7.125000 0.000000 0.000000 13.073700 -55.859300 -3.526400 
29.304643 17.798446 4.734469 -68.624128 -87.089841 78.279477 -2.204556 -1.001835 0.051566 -12.757910 -5.303879 0.393636 1.518501 10.360375 28.506092 1.020293 -1.493713 11.614867 2.366400 -9.590900 -27.661800 1.517111 1.904444 -2.347533 16.560495 9.156062 -25.623113 -0.361755 -7.350156 18.354957 2.461918 -16.021505 7.979776 -1.161900 -6.843100 19.251500 2.613030 -2.462085 2.375311 2.593248 -3.125391 -5.099165 9.384801 -1.723954 -1.391723 -4.653522 -3.351844 -12.654302 4.656515 -3.996189 4.514835 1.869800 -1.958800 5.621300 7.034147 3.003204 0.346895 -95.341986 -1.421343 39.967330 13.962273 -33.599921 -3.588302 1.296147 2.209375 24.749669 13.922007 17.830140 3.660500 -7.125000 0.000000 0.000000 -12.946400 45.221000 -0.071800 -2.781191 -3.594337 -1.619187 86.036127 5.506454 -10.930754 -4.350284 11.029588 -0.196310 -0.088541 0.772817 36.586423 -18.022790 -24.653789 7.681200 7.125000 0.000000 0.000000 13.188100 -55.888300 -3.567400 
29.159562 17.820263 4.700788 -66.924239 -86.836363 76.558846 -2.177818 -1.041272 -0.002236 -12.158300 -5.093078 -0.511330 1.819714 10.860162 30.104263 1.082527 -1.305800 13.439543 2.030000 -8.928200 -25.571000 1.517050 1.872933 -2.297473 17.060262 9.120344 -24.975245 -0.334102 -7.281877 18.182308 2.493733 -15.986321 7.490054 -1.162100 -6.843500 19.252500 2.862875 -2.482732 2.310345 2.619818 -3.156075 -5.120290 9.344268 -1.746160 -1.425452 -4.625858 -3.353606 -12.606501 4.612308 -4.009860 4.606888 1.846900 -1.968100 5.645500 7.095900 2.976412 0.355462 -95.372899 -0.829043 38.964916 12.953119 -32.535243 -3.287554 1.331017 2.136541 26.440139 13.387148 17.555486 3.464600 -7.125000 0.000000 0.000000 -13.354300 44.934700 0.021900 -2.786344 -3.583071 -1.628099 85.802402 4.872710 -12.237101 -4.304876 10.956998 -0.187255 -0.080101 0.777389 37.350912 -18.011650 -24.678718 7.682000 7.125000 0.000000 0.000000 13.217000 -55.912300 -3.583100 
29.017598 17.839366 4.667609 -65.560325 -86.554903 75.157952 -2.151252 -1.077948 -0.060096 -11.537824 -4.880805 -1.440611 2.146673 11.361383 31.727142 1.146177 -1.012856 15.275122 1.687200 -8.181800 -23.267500 1.511872 1.842964 -2.249558 17.595596 9.068776 -24.322410 -0.306986 -7.212251 18.007330 2.524560 -15.955225 7.001218 -1.160700 -6.839600 19.241200 3.096301 -2.492758 2.249746 2.661795 -3.176860 -5.129002 9.373440 -1.762424 -1.422334 -4.645413 -3.370916 -12.576930 4.567201 -4.033579 4.683918 1.830000 -1.983700 5.668300 7.168185 2.955866 0.365584 -95.475071 -0.330031 37.775585 11.919070 -31.439960 -2.998341 1.367762 2.052630 28.375580 12.845418 17.218792 3.259600 -7.125000 0.000000 0.000000 -13.748900 44.594100 0.140500 -2.791947 -3.572898 -1.638487 85.490527 4.221370 -12.854655 -4.316836 11.008007 -0.191900 -0.080160 0.781774 37.440508 -17.937199 -24.703750 7.653700 7.125000 0.000000 0.000000 13.311800 -55.924100 -3.613300 
28.878752 17.855553 4.635537 -64.585654 -86.229238 74.125034 -2.120002 -1.110612 -0.121564 -10.888635 -4.676961 -2.373473 2.499387 11.861877 33.374517 1.220841 -0.673840 17.108921 1.345000 -7.342300 -20.733600 1.504939 1.814730 -2.202703 18.183753 8.991791 -23.668578 -0.280806 -7.143245 17.835268 2.549946 -15.913035 6.523935 -1.158000 -6.832000 19.218700 3.384322 -2.498038 2.216603 2.701797 -3.190145 -5.131056 9.368821 -1.775679 -1.417693 -4.656874 -3.396563 -12.537275 4.529055 -4.069550 4.742172 1.814500 -2.004600 5.683100 7.241351 2.939153 0.374854 -95.569746 0.093489 36.369764 10.866787 -30.297330 -2.721231 1.402612 1.950967 30.526384 12.315684 16.793272 3.047200 -7.125000 0.000000 0.000000 -14.110300 44.182500 0.290700 -2.800161 -3.564620 -1.648944 85.186430 3.538327 -12.884334 -4.376456 11.164054 -0.208765 -0.087392 0.785649 36.971293 -17.813239 -24.700897 7.594800 7.125000 0.000000 0.000000 13.442800 -55.898200 -3.641300 
